<svg xmlns="http://www.w3.org/2000/svg" width="60" viewBox="0 0 60 60" height="60" version="1.0"><path fill="#FFF" d="M 29.914062 5.960938 C 29.128906 5.960938 28.347656 6 27.566406 6.074219 C 26.785156 6.152344 26.011719 6.265625 25.242188 6.421875 C 24.472656 6.574219 23.710938 6.765625 22.960938 6.992188 C 22.210938 7.21875 21.472656 7.484375 20.746094 7.785156 C 20.023438 8.082031 19.3125 8.417969 18.621094 8.789062 C 17.929688 9.160156 17.257812 9.5625 16.605469 9.996094 C 15.953125 10.433594 15.324219 10.898438 14.71875 11.398438 C 14.113281 11.894531 13.53125 12.421875 12.976562 12.976562 C 12.421875 13.53125 11.894531 14.113281 11.398438 14.71875 C 10.898438 15.324219 10.433594 15.953125 9.996094 16.605469 C 9.5625 17.257812 9.160156 17.929688 8.789062 18.621094 C 8.417969 19.3125 8.082031 20.023438 7.785156 20.746094 C 7.484375 21.472656 7.21875 22.210938 6.992188 22.960938 C 6.765625 23.710938 6.574219 24.472656 6.421875 25.242188 C 6.265625 26.011719 6.152344 26.785156 6.074219 27.566406 C 6 28.347656 5.960938 29.128906 5.960938 29.914062 C 5.960938 30.699219 6 31.480469 6.074219 32.261719 C 6.152344 33.042969 6.265625 33.816406 6.421875 34.585938 C 6.574219 35.355469 6.765625 36.117188 6.992188 36.867188 C 7.21875 37.617188 7.484375 38.355469 7.785156 39.078125 C 8.082031 39.804688 8.417969 40.511719 8.789062 41.203125 C 9.160156 41.898438 9.5625 42.570312 9.996094 43.222656 C 10.433594 43.875 10.898438 44.503906 11.398438 45.109375 C 11.894531 45.714844 12.421875 46.296875 12.976562 46.851562 C 13.53125 47.40625 14.113281 47.933594 14.71875 48.429688 C 15.324219 48.925781 15.953125 49.394531 16.605469 49.828125 C 17.257812 50.265625 17.929688 50.667969 18.621094 51.039062 C 19.3125 51.40625 20.023438 51.742188 20.746094 52.042969 C 21.472656 52.34375 22.210938 52.609375 22.960938 52.835938 C 23.710938 53.0625 24.472656 53.253906 25.242188 53.40625 C 26.011719 53.558594 26.785156 53.675781 27.566406 53.75 C 28.347656 53.828125 29.128906 53.867188 29.914062 53.867188 C 30.699219 53.867188 31.480469 53.828125 32.261719 53.75 C 33.042969 53.675781 33.816406 53.558594 34.585938 53.40625 C 35.355469 53.253906 36.117188 53.0625 36.867188 52.835938 C 37.617188 52.609375 38.355469 52.34375 39.078125 52.042969 C 39.804688 51.742188 40.511719 51.40625 41.203125 51.039062 C 41.898438 50.667969 42.570312 50.265625 43.222656 49.828125 C 43.875 49.394531 44.503906 48.925781 45.109375 48.429688 C 45.714844 47.933594 46.296875 47.40625 46.851562 46.851562 C 47.40625 46.296875 47.933594 45.714844 48.429688 45.109375 C 48.925781 44.503906 49.394531 43.875 49.828125 43.222656 C 50.265625 42.570312 50.667969 41.898438 51.039062 41.203125 C 51.40625 40.511719 51.742188 39.804688 52.042969 39.078125 C 52.34375 38.355469 52.609375 37.617188 52.835938 36.867188 C 53.0625 36.117188 53.253906 35.355469 53.40625 34.585938 C 53.558594 33.816406 53.675781 33.042969 53.75 32.261719 C 53.828125 31.480469 53.867188 30.699219 53.867188 29.914062 C 53.867188 29.128906 53.828125 28.347656 53.75 27.566406 C 53.675781 26.785156 53.558594 26.011719 53.40625 25.242188 C 53.253906 24.472656 53.0625 23.710938 52.835938 22.960938 C 52.609375 22.210938 52.34375 21.472656 52.042969 20.746094 C 51.742188 20.023438 51.40625 19.3125 51.039062 18.621094 C 50.667969 17.929688 50.265625 17.257812 49.828125 16.605469 C 49.394531 15.953125 48.925781 15.324219 48.429688 14.71875 C 47.933594 14.113281 47.40625 13.53125 46.851562 12.976562 C 46.296875 12.421875 45.714844 11.894531 45.109375 11.398438 C 44.503906 10.898438 43.875 10.433594 43.222656 9.996094 C 42.570312 9.5625 41.898438 9.160156 41.203125 8.789062 C 40.511719 8.417969 39.804688 8.082031 39.078125 7.785156 C 38.355469 7.484375 37.617188 7.21875 36.867188 6.992188 C 36.117188 6.765625 35.355469 6.574219 34.585938 6.421875 C 33.816406 6.265625 33.042969 6.152344 32.261719 6.074219 C 31.480469 6 30.699219 5.960938 29.914062 5.960938 Z M 29.914062 50.445312 C 29.242188 50.445312 28.570312 50.410156 27.902344 50.347656 C 27.230469 50.28125 26.566406 50.179688 25.90625 50.050781 C 25.25 49.917969 24.597656 49.753906 23.953125 49.5625 C 23.308594 49.367188 22.675781 49.140625 22.054688 48.882812 C 21.433594 48.625 20.828125 48.335938 20.234375 48.019531 C 19.640625 47.703125 19.066406 47.359375 18.507812 46.984375 C 17.949219 46.609375 17.410156 46.210938 16.886719 45.785156 C 16.367188 45.359375 15.871094 44.90625 15.394531 44.429688 C 14.921875 43.957031 14.46875 43.457031 14.042969 42.9375 C 13.617188 42.417969 13.214844 41.878906 12.84375 41.320312 C 12.46875 40.761719 12.125 40.183594 11.804688 39.59375 C 11.488281 39 11.203125 38.390625 10.945312 37.769531 C 10.6875 37.148438 10.460938 36.515625 10.265625 35.875 C 10.070312 35.230469 9.90625 34.578125 9.777344 33.917969 C 9.644531 33.257812 9.546875 32.59375 9.480469 31.925781 C 9.414062 31.257812 9.382812 30.585938 9.382812 29.914062 C 9.382812 29.242188 9.414062 28.570312 9.480469 27.902344 C 9.546875 27.230469 9.644531 26.566406 9.777344 25.90625 C 9.90625 25.25 10.070312 24.597656 10.265625 23.953125 C 10.460938 23.308594 10.6875 22.675781 10.945312 22.054688 C 11.203125 21.433594 11.488281 20.828125 11.804688 20.234375 C 12.125 19.640625 12.46875 19.066406 12.84375 18.507812 C 13.214844 17.949219 13.617188 17.410156 14.042969 16.886719 C 14.46875 16.367188 14.921875 15.871094 15.394531 15.394531 C 15.871094 14.921875 16.367188 14.46875 16.886719 14.042969 C 17.410156 13.617188 17.949219 13.214844 18.507812 12.84375 C 19.066406 12.46875 19.640625 12.125 20.234375 11.804688 C 20.828125 11.488281 21.433594 11.203125 22.054688 10.945312 C 22.675781 10.6875 23.308594 10.460938 23.953125 10.265625 C 24.597656 10.070312 25.25 9.90625 25.90625 9.777344 C 26.566406 9.644531 27.230469 9.546875 27.902344 9.480469 C 28.570312 9.414062 29.242188 9.382812 29.914062 9.382812 C 30.585938 9.382812 31.257812 9.414062 31.925781 9.480469 C 32.59375 9.546875 33.257812 9.644531 33.917969 9.777344 C 34.578125 9.90625 35.230469 10.070312 35.875 10.265625 C 36.515625 10.460938 37.148438 10.6875 37.769531 10.945312 C 38.390625 11.203125 39 11.488281 39.59375 11.804688 C 40.183594 12.125 40.761719 12.46875 41.320312 12.84375 C 41.878906 13.214844 42.417969 13.617188 42.9375 14.042969 C 43.457031 14.46875 43.957031 14.921875 44.429688 15.394531 C 44.90625 15.871094 45.359375 16.367188 45.785156 16.886719 C 46.210938 17.410156 46.609375 17.949219 46.984375 18.507812 C 47.359375 19.066406 47.703125 19.640625 48.019531 20.234375 C 48.335938 20.828125 48.625 21.433594 48.882812 22.054688 C 49.140625 22.675781 49.367188 23.308594 49.5625 23.953125 C 49.753906 24.597656 49.917969 25.25 50.050781 25.90625 C 50.179688 26.566406 50.28125 27.230469 50.347656 27.902344 C 50.410156 28.570312 50.445312 29.242188 50.445312 29.914062 C 50.445312 30.585938 50.410156 31.257812 50.347656 31.925781 C 50.28125 32.59375 50.179688 33.257812 50.050781 33.917969 C 49.917969 34.578125 49.753906 35.230469 49.5625 35.875 C 49.367188 36.515625 49.140625 37.148438 48.882812 37.769531 C 48.625 38.390625 48.335938 39 48.019531 39.59375 C 47.703125 40.183594 47.359375 40.761719 46.984375 41.320312 C 46.609375 41.878906 46.210938 42.417969 45.785156 42.9375 C 45.359375 43.457031 44.90625 43.957031 44.429688 44.429688 C 43.957031 44.90625 43.457031 45.359375 42.9375 45.785156 C 42.417969 46.210938 41.878906 46.609375 41.320312 46.984375 C 40.761719 47.359375 40.183594 47.703125 39.59375 48.019531 C 39 48.335938 38.390625 48.625 37.769531 48.882812 C 37.148438 49.140625 36.515625 49.367188 35.875 49.5625 C 35.230469 49.753906 34.578125 49.917969 33.917969 50.050781 C 33.257812 50.179688 32.59375 50.28125 31.925781 50.347656 C 31.257812 50.410156 30.585938 50.445312 29.914062 50.445312 Z M 29.914062 50.445312"/><path fill="#FFF" d="M 32.480469 42.746094 C 32.480469 43.085938 32.414062 43.414062 32.285156 43.726562 C 32.152344 44.042969 31.96875 44.320312 31.726562 44.558594 C 31.488281 44.800781 31.210938 44.984375 30.894531 45.117188 C 30.582031 45.246094 30.253906 45.3125 29.914062 45.3125 C 29.574219 45.3125 29.246094 45.246094 28.929688 45.117188 C 28.617188 44.984375 28.339844 44.800781 28.097656 44.558594 C 27.859375 44.320312 27.671875 44.042969 27.542969 43.726562 C 27.414062 43.414062 27.347656 43.085938 27.347656 42.746094 C 27.347656 42.40625 27.414062 42.078125 27.542969 41.761719 C 27.671875 41.449219 27.859375 41.171875 28.097656 40.929688 C 28.339844 40.691406 28.617188 40.503906 28.929688 40.375 C 29.246094 40.246094 29.574219 40.179688 29.914062 40.179688 C 30.253906 40.179688 30.582031 40.246094 30.894531 40.375 C 31.210938 40.503906 31.488281 40.691406 31.726562 40.929688 C 31.96875 41.171875 32.152344 41.449219 32.285156 41.761719 C 32.414062 42.078125 32.480469 42.40625 32.480469 42.746094 Z M 32.480469 42.746094"/><path fill="#FFF" d="M 31.625 16.226562 L 29.058594 16.226562 C 28.550781 16.226562 28.050781 16.273438 27.554688 16.371094 C 27.058594 16.46875 26.578125 16.613281 26.109375 16.808594 C 25.640625 17 25.195312 17.238281 24.777344 17.519531 C 24.355469 17.800781 23.964844 18.117188 23.609375 18.476562 C 23.25 18.832031 22.933594 19.222656 22.652344 19.644531 C 22.371094 20.0625 22.132812 20.507812 21.941406 20.976562 C 21.746094 21.445312 21.601562 21.925781 21.503906 22.421875 C 21.40625 22.917969 21.359375 23.417969 21.359375 23.925781 L 21.359375 24.78125 L 24.78125 24.78125 L 24.78125 23.925781 C 24.78125 23.644531 24.808594 23.367188 24.863281 23.089844 C 24.917969 22.816406 25 22.546875 25.105469 22.289062 C 25.214844 22.027344 25.34375 21.78125 25.5 21.546875 C 25.65625 21.316406 25.835938 21.097656 26.035156 20.902344 C 26.230469 20.703125 26.449219 20.523438 26.679688 20.367188 C 26.914062 20.210938 27.160156 20.082031 27.421875 19.972656 C 27.679688 19.867188 27.949219 19.785156 28.222656 19.730469 C 28.5 19.675781 28.777344 19.648438 29.058594 19.648438 L 31.625 19.648438 C 31.90625 19.648438 32.183594 19.675781 32.457031 19.730469 C 32.734375 19.785156 33 19.867188 33.261719 19.972656 C 33.519531 20.082031 33.765625 20.210938 34 20.367188 C 34.234375 20.523438 34.449219 20.703125 34.648438 20.902344 C 34.847656 21.097656 35.023438 21.316406 35.179688 21.546875 C 35.335938 21.78125 35.46875 22.027344 35.574219 22.289062 C 35.683594 22.546875 35.765625 22.816406 35.820312 23.089844 C 35.875 23.367188 35.902344 23.644531 35.902344 23.925781 C 35.902344 24.207031 35.875 24.484375 35.820312 24.757812 C 35.765625 25.035156 35.683594 25.300781 35.574219 25.5625 C 35.46875 25.820312 35.335938 26.066406 35.179688 26.300781 C 35.023438 26.535156 34.847656 26.75 34.648438 26.949219 C 34.449219 27.148438 34.234375 27.324219 34 27.480469 C 33.765625 27.636719 33.519531 27.769531 33.261719 27.875 C 33 27.984375 32.734375 28.066406 32.457031 28.121094 C 32.183594 28.175781 31.90625 28.203125 31.625 28.203125 L 28.203125 28.203125 L 28.203125 35.902344 L 31.625 35.902344 L 31.625 31.625 C 32.128906 31.625 32.628906 31.574219 33.125 31.476562 C 33.621094 31.378906 34.105469 31.230469 34.570312 31.039062 C 35.039062 30.84375 35.480469 30.609375 35.902344 30.328125 C 36.320312 30.046875 36.710938 29.726562 37.070312 29.371094 C 37.425781 29.011719 37.746094 28.621094 38.027344 28.203125 C 38.308594 27.78125 38.542969 27.339844 38.738281 26.871094 C 38.929688 26.40625 39.078125 25.921875 39.175781 25.425781 C 39.273438 24.929688 39.324219 24.429688 39.324219 23.925781 C 39.324219 23.417969 39.273438 22.917969 39.175781 22.421875 C 39.078125 21.925781 38.929688 21.445312 38.738281 20.980469 C 38.542969 20.511719 38.308594 20.066406 38.027344 19.648438 C 37.746094 19.226562 37.425781 18.839844 37.070312 18.480469 C 36.710938 18.125 36.320312 17.804688 35.902344 17.523438 C 35.480469 17.242188 35.039062 17.003906 34.570312 16.8125 C 34.105469 16.617188 33.621094 16.472656 33.125 16.375 C 32.628906 16.273438 32.128906 16.226562 31.625 16.226562 Z M 31.625 16.226562"/></svg>